<svg xmlns="http://www.w3.org/2000/svg" width="1600" height="900" viewBox="0 0 1600 900" role="img" aria-label="Trip placeholder">
  <defs>
    <linearGradient id="g1" x1="0" y1="0" x2="1" y2="1">
      <stop offset="0" stop-color="#1d2e7a"/>
      <stop offset="1" stop-color="#12204f"/>
    </linearGradient>
    <linearGradient id="g2" x1="0" y1="0" x2="1" y2="0">
      <stop offset="0" stop-color="#5a7dff"/>
      <stop offset="1" stop-color="#3de8ff"/>
    </linearGradient>
  </defs>
  <rect width="1600" height="900" fill="url(#g1)"/>
  <circle cx="1330" cy="190" r="120" fill="#2b3e94" opacity="0.45"/>
  <circle cx="240" cy="730" r="180" fill="#224ca1" opacity="0.35"/>
  <path d="M0 700 L280 510 L520 640 L760 450 L1040 670 L1300 480 L1600 690 L1600 900 L0 900 Z" fill="url(#g2)" opacity="0.68"/>
  <path d="M0 740 L240 610 L490 730 L760 560 L1020 760 L1300 590 L1600 760 L1600 900 L0 900 Z" fill="#0f173d" opacity="0.75"/>
  <g fill="#dce7ff">
    <rect x="210" y="230" width="180" height="130" rx="18" opacity="0.9"/>
    <circle cx="390" cy="295" r="34" opacity="0.9"/>
    <rect x="960" y="240" width="230" height="20" rx="10" opacity="0.85"/>
    <rect x="960" y="280" width="320" height="20" rx="10" opacity="0.75"/>
    <rect x="960" y="320" width="260" height="20" rx="10" opacity="0.65"/>
  </g>
</svg>
